<svg width="228" height="228" viewBox="0 0 228 228" fill="none" xmlns="http://www.w3.org/2000/svg">
<rect width="228" height="228" fill="white"/>
<rect width="228" height="228" fill="#F4FAF6"/>
<ellipse cx="85.8865" cy="122.155" rx="14.6619" ry="14.56" fill="#81D489"/>
<path d="M103.948 81.1561C100.526 81.1561 97.2443 79.8062 94.8248 77.4034C92.4052 75.0007 91.0459 71.7418 91.0459 68.3438C91.0459 64.9458 92.4052 61.6869 94.8248 59.2842C97.2443 56.8814 100.526 55.5316 103.948 55.5316H160.716C164.138 55.5316 167.419 56.8814 169.839 59.2842C172.258 61.6869 173.618 64.9458 173.618 68.3438C173.618 71.7418 172.258 75.0007 169.839 77.4034C167.419 79.8062 164.138 81.1561 160.716 81.1561H103.948Z" stroke="#040404" stroke-width="2" stroke-linecap="round" stroke-linejoin="round"/>
<path d="M100.768 55.9213L110.434 65.5253" stroke="#040404" stroke-width="2" stroke-linecap="round" stroke-linejoin="round"/>
<path d="M122.269 55.5316L132.332 65.5251" stroke="#040404" stroke-width="2" stroke-linecap="round" stroke-linejoin="round"/>
<path d="M144.166 55.5316L154.229 65.5251" stroke="#040404" stroke-width="2" stroke-linecap="round" stroke-linejoin="round"/>
<path d="M116.849 121.945C116.891 128.036 115.111 134.001 111.734 139.086C108.357 144.17 103.536 148.144 97.8815 150.503C92.2274 152.863 85.9949 153.502 79.9745 152.339C73.9541 151.177 68.417 148.265 64.0654 143.973C59.7137 139.681 56.7436 134.202 55.5316 128.232C54.3195 122.261 54.9203 116.068 57.2575 110.437C59.5948 104.806 63.5634 99.9912 68.6599 96.6031C73.7565 93.2149 79.7515 91.4061 85.8846 91.4059H114.269C118.156 91.3985 121.904 92.8435 124.767 95.4537C127.631 98.0639 129.401 101.648 129.726 105.495C130.051 109.342 128.907 113.169 126.522 116.217C124.136 119.264 120.683 121.309 116.849 121.945Z" stroke="#040404" stroke-width="2" stroke-linecap="round" stroke-linejoin="round"/>
<path d="M85.8855 137.53C94.4361 137.53 101.368 130.646 101.368 122.155C101.368 113.664 94.4361 106.781 85.8855 106.781C77.3349 106.781 70.4033 113.664 70.4033 122.155C70.4033 130.646 77.3349 137.53 85.8855 137.53Z" stroke="#040404" stroke-width="2" stroke-linecap="round" stroke-linejoin="round"/>
<path d="M159.646 91.4059C157.711 93.328 156.624 95.9346 156.624 98.6525C156.624 101.37 157.711 103.977 159.646 105.899C160.763 107.009 161.609 108.359 162.118 109.844C162.627 111.33 162.786 112.912 162.582 114.468" stroke="#040404" stroke-width="2" stroke-linecap="round" stroke-linejoin="round"/>
<path d="M171.465 119.418C173 117.445 173.759 114.984 173.598 112.495C173.438 110.007 172.369 107.661 170.593 105.899C169.161 104.477 168.181 102.669 167.777 100.699C167.372 98.7286 167.56 96.6838 168.317 94.8189C168.463 94.4353 168.512 94.0221 168.461 93.6152C168.41 93.2082 168.26 92.8198 168.024 92.4836C167.787 92.1473 167.472 91.8734 167.105 91.6856C166.738 91.4978 166.33 91.4017 165.917 91.4057H149.919C149.537 91.3988 149.158 91.4761 148.81 91.6321C148.462 91.7881 148.153 92.0188 147.906 92.3077C146.342 94.2789 145.561 96.7512 145.71 99.2562C145.86 101.761 146.929 104.125 148.716 105.899C150.383 107.552 151.429 109.723 151.679 112.049" stroke="#040404" stroke-width="2" stroke-linecap="round" stroke-linejoin="round"/>
<path d="M114.945 163.954C116.268 164.252 117.636 164.288 118.972 164.06C120.309 163.833 121.587 163.346 122.733 162.628C123.88 161.91 124.873 160.974 125.656 159.875C126.439 158.775 126.996 157.534 127.295 156.22C127.899 153.569 129.54 151.265 131.855 149.815C134.17 148.365 136.97 147.887 139.639 148.487C140.961 148.785 142.329 148.821 143.665 148.594C145.001 148.367 146.279 147.881 147.426 147.163C148.573 146.445 149.566 145.51 150.349 144.411C151.132 143.313 151.689 142.071 151.989 140.759C152.594 138.109 154.233 135.806 156.547 134.355C158.861 132.905 161.66 132.427 164.328 133.025" stroke="#040404" stroke-width="2" stroke-linecap="round" stroke-linejoin="round"/>
<path d="M120.152 172.148C120.345 172.47 120.609 172.744 120.923 172.951C121.238 173.158 121.595 173.292 121.969 173.343C124.484 173.609 127.011 172.949 129.069 171.488C131.127 170.026 132.572 167.865 133.131 165.414C133.431 164.102 133.988 162.86 134.771 161.762C135.554 160.663 136.547 159.728 137.694 159.01C138.841 158.292 140.119 157.806 141.455 157.579C142.791 157.352 144.159 157.388 145.481 157.686C148.151 158.286 150.951 157.808 153.266 156.358C155.581 154.908 157.221 152.604 157.825 149.953C158.267 148.008 159.27 146.233 160.712 144.846C162.154 143.459 163.972 142.519 165.943 142.142C166.355 142.067 166.743 141.893 167.072 141.636C167.401 141.379 167.663 141.046 167.833 140.666C168.004 140.286 168.079 139.871 168.052 139.455C168.025 139.04 167.896 138.638 167.677 138.283L159.131 124.82C158.938 124.498 158.674 124.224 158.36 124.017C158.045 123.811 157.688 123.677 157.314 123.626C154.799 123.358 152.271 124.016 150.212 125.477C148.153 126.938 146.706 129.099 146.147 131.549C145.542 134.2 143.902 136.504 141.587 137.954C139.272 139.405 136.472 139.882 133.802 139.282C132.48 138.985 131.111 138.949 129.775 139.176C128.439 139.404 127.161 139.89 126.014 140.608C124.867 141.327 123.874 142.262 123.091 143.362C122.309 144.461 121.752 145.703 121.452 147.016C121.009 148.958 120.006 150.73 118.566 152.115C117.125 153.501 115.309 154.439 113.34 154.816C112.928 154.891 112.54 155.065 112.211 155.322C111.882 155.579 111.62 155.912 111.45 156.292C111.279 156.672 111.204 157.088 111.231 157.503C111.258 157.918 111.387 158.32 111.606 158.675L120.152 172.148Z" stroke="#040404" stroke-width="2" stroke-linecap="round" stroke-linejoin="round"/>
</svg>
