<svg width="228" height="228" viewBox="0 0 228 228" fill="none" xmlns="http://www.w3.org/2000/svg">
<rect width="228" height="228" fill="white"/>
<rect width="228" height="228" fill="#F4FAF6"/>
<path d="M124.442 57.0966C124.442 56.7486 124.513 56.4041 124.651 56.0844C124.79 55.7647 124.992 55.4764 125.247 55.2374C125.502 54.9983 125.803 54.8135 126.132 54.6943C126.462 54.5751 126.812 54.524 127.162 54.5442C137.373 55.1547 147.128 58.9551 155.033 65.402C155.31 65.6263 155.536 65.9053 155.698 66.2212C155.86 66.5371 155.954 66.8831 155.974 67.237C155.993 67.591 155.939 67.9451 155.813 68.2769C155.688 68.6087 155.494 68.9109 155.244 69.1643L128.848 95.9439C128.49 96.3058 128.033 96.5538 127.533 96.6564C127.033 96.759 126.513 96.7114 126.041 96.5197C125.568 96.3281 125.164 96.001 124.879 95.5803C124.595 95.1595 124.442 94.6641 124.442 94.1572V57.0966Z" stroke="#111111" stroke-width="2" stroke-linecap="round" stroke-linejoin="round"/>
<path d="M149.574 74.9174C142.861 68.3917 133.837 64.7423 124.442 64.7538" stroke="#111111" stroke-width="2" stroke-linecap="round" stroke-linejoin="round"/>
<path d="M114.164 90.2776C105.839 90.2782 97.7717 93.1455 91.3367 98.3909C84.9018 103.636 80.4974 110.935 78.8742 119.044C77.251 127.153 78.5094 135.569 82.4349 142.86C86.3604 150.151 92.7101 155.864 100.402 159.027C108.094 162.189 116.652 162.605 124.619 160.204C132.585 157.802 139.466 152.732 144.09 145.857C148.714 138.982 150.794 130.728 149.976 122.5C149.158 114.273 145.493 106.582 139.604 100.737" stroke="#111111" stroke-width="2" stroke-linecap="round" stroke-linejoin="round"/>
<path d="M101.311 113.249C104.15 113.249 106.452 110.964 106.452 108.144C106.452 105.325 104.15 103.04 101.311 103.04C98.4724 103.04 96.1709 105.325 96.1709 108.144C96.1709 110.964 98.4724 113.249 101.311 113.249Z" fill="#81D489" stroke="#81D489" stroke-width="2" stroke-linecap="round" stroke-linejoin="round"/>
<path d="M96.1698 136.221C99.0088 136.221 101.31 133.935 101.31 131.116C101.31 128.296 99.0088 126.011 96.1698 126.011C93.3308 126.011 91.0293 128.296 91.0293 131.116C91.0293 133.935 93.3308 136.221 96.1698 136.221Z" fill="#81D489" stroke="#81D489" stroke-width="2" stroke-linecap="round" stroke-linejoin="round"/>
<path d="M116.732 151.535C119.571 151.535 121.873 149.249 121.873 146.43C121.873 143.611 119.571 141.325 116.732 141.325C113.893 141.325 111.592 143.611 111.592 146.43C111.592 149.249 113.893 151.535 116.732 151.535Z" fill="#81D489" stroke="#81D489" stroke-width="2" stroke-linecap="round" stroke-linejoin="round"/>
<path d="M134.724 136.221C137.563 136.221 139.865 133.935 139.865 131.116C139.865 128.296 137.563 126.011 134.724 126.011C131.885 126.011 129.584 128.296 129.584 131.116C129.584 133.935 131.885 136.221 134.724 136.221Z" fill="#81D489" stroke="#81D489" stroke-width="2" stroke-linecap="round" stroke-linejoin="round"/>
<path d="M133.324 106.991L134.727 108.145C135.707 109.168 136.246 110.532 136.228 111.945C136.21 113.357 135.637 114.707 134.631 115.706C133.625 116.705 132.266 117.274 130.843 117.292C129.421 117.31 128.048 116.775 127.017 115.802L125.613 114.648" fill="#81D489"/>
<path d="M133.324 106.991L134.727 108.145C135.707 109.168 136.246 110.532 136.228 111.945C136.21 113.357 135.637 114.707 134.631 115.706C133.625 116.705 132.266 117.274 130.843 117.292C129.421 117.31 128.048 116.775 127.017 115.802L125.613 114.648" stroke="#81D489" stroke-width="2" stroke-linecap="round" stroke-linejoin="round"/>
<path d="M148.749 95.4897C148.516 95.2293 148.232 95.0189 147.914 94.8716C147.596 94.7243 147.252 94.6431 146.901 94.6331C146.55 94.623 146.202 94.6844 145.876 94.8132C145.55 94.9421 145.254 95.1358 145.007 95.3825L114.164 126.011V82.6921C114.164 82.344 114.093 81.9996 113.955 81.6799C113.817 81.3601 113.614 81.0719 113.359 80.8328C113.104 80.5938 112.803 80.409 112.474 80.2898C112.145 80.1706 111.794 80.1195 111.444 80.1397C100.993 80.7514 91.0592 84.8656 83.267 91.8097C75.4748 98.7538 70.2849 108.117 68.5454 118.37C66.8059 128.622 68.6198 139.158 73.6905 148.254C78.7613 157.35 86.789 164.47 96.4618 168.449C106.135 172.427 116.88 173.03 126.943 170.159C137.006 167.288 145.79 161.112 151.86 152.641C157.931 144.17 160.928 133.905 160.363 123.523C159.798 113.141 155.704 103.256 148.749 95.4846V95.4897Z" stroke="#111111" stroke-width="2" stroke-linecap="round" stroke-linejoin="round"/>
</svg>
