<svg width="228" height="228" viewBox="0 0 228 228" fill="none" xmlns="http://www.w3.org/2000/svg">
<rect width="228" height="228" fill="white"/>
<rect width="228" height="228" fill="#F4FAF6"/>
<path d="M130.016 117.594H180.942L184.018 120.431L171.273 139.797L168.087 141.543L163.472 140.834L128.973 119.012L130.016 117.594Z" fill="#81D489"/>
<path d="M57.6665 154.8L52.3926 132.76L53.4915 128.614L62.5009 122.613H75.7953L106.779 120.976L110.734 128.614L104.801 154.8L101.505 157.855H59.864L57.6665 154.8Z" fill="#81D489"/>
<path d="M109.646 133.2L105.162 153.321C104.86 154.67 104.104 155.876 103.019 156.74C101.934 157.605 100.585 158.076 99.1936 158.077H63.1379C61.7464 158.078 60.3962 157.607 59.3109 156.742C58.2255 155.877 57.4699 154.67 57.1691 153.321L52.6465 133.192" stroke="#040404" stroke-width="1.72076" stroke-linecap="round" stroke-linejoin="round"/>
<path d="M69.4982 95.492C55.5541 98.3097 42.9385 106.315 42.9385 120.131C42.929 123.203 43.9653 126.188 45.8791 128.601C47.7929 131.015 50.4719 132.715 53.4812 133.425C56.4905 134.136 59.6534 133.816 62.4564 132.517C65.2594 131.218 67.5379 129.016 68.9221 126.269C70.0531 128.529 71.7968 130.431 73.9571 131.76C76.1173 133.09 78.6083 133.794 81.1497 133.794C83.6911 133.794 86.1821 133.09 88.3424 131.76C90.5026 130.431 92.2463 128.529 93.3773 126.269C94.7615 129.016 97.04 131.218 99.843 132.517C102.646 133.816 105.809 134.136 108.818 133.425C111.828 132.715 114.507 131.015 116.42 128.601C118.334 126.188 119.37 123.203 119.361 120.131C119.361 106.323 106.745 98.3136 92.7933 95.492" fill="#F4FAF6"/>
<path d="M69.4982 95.492C55.5541 98.3097 42.9385 106.315 42.9385 120.131C42.929 123.203 43.9653 126.188 45.8791 128.601C47.7929 131.015 50.4719 132.715 53.4812 133.425C56.4905 134.136 59.6534 133.816 62.4564 132.517C65.2594 131.218 67.5379 129.016 68.9221 126.269C70.0531 128.529 71.7968 130.431 73.9571 131.76C76.1173 133.09 78.6083 133.794 81.1497 133.794C83.6911 133.794 86.1821 133.09 88.3424 131.76C90.5026 130.431 92.2463 128.529 93.3773 126.269C94.7615 129.016 97.04 131.218 99.843 132.517C102.646 133.816 105.809 134.136 108.818 133.425C111.828 132.715 114.507 131.015 116.42 128.601C118.334 126.188 119.37 123.203 119.361 120.131C119.361 106.323 106.745 98.3136 92.7933 95.492" stroke="#040404" stroke-width="1.72076" stroke-linecap="round" stroke-linejoin="round"/>
<path d="M81.1499 105.537C87.6432 105.537 92.9071 100.31 92.9071 93.8613C92.9071 87.413 87.6432 82.1857 81.1499 82.1857C74.6565 82.1857 69.3926 87.413 69.3926 93.8613C69.3926 100.31 74.6565 105.537 81.1499 105.537Z" stroke="#040404" stroke-width="1.72076" stroke-linecap="round" stroke-linejoin="round"/>
<path d="M81.1501 82.1857C80.9222 80.5997 81.0693 78.9829 81.5795 77.4631C82.0898 75.9433 82.9493 74.5624 84.0901 73.4296C85.2308 72.2968 86.6214 71.4432 88.1518 70.9365C89.6822 70.4298 91.3103 70.2838 92.9074 70.51" stroke="#040404" stroke-width="1.72076" stroke-linecap="round" stroke-linejoin="round"/>
<path d="M67.7061 128.226L72.3306 158.077" stroke="#040404" stroke-width="1.72076" stroke-linecap="round" stroke-linejoin="round"/>
<path d="M94.5923 128.226L89.9678 158.077" stroke="#040404" stroke-width="1.72076" stroke-linecap="round" stroke-linejoin="round"/>
<path d="M178.802 158.428H132.408C130.765 158.428 129.189 157.779 128.027 156.625C126.865 155.471 126.212 153.906 126.212 152.274V123.401C126.212 121.852 126.831 120.367 127.934 119.273C129.036 118.178 130.531 117.563 132.091 117.563H179.12C180.679 117.563 182.174 118.178 183.277 119.273C184.379 120.367 184.998 121.852 184.998 123.401V152.274C184.998 153.906 184.346 155.471 183.184 156.625C182.022 157.779 180.446 158.428 178.802 158.428V158.428Z" stroke="#040404" stroke-width="1.72076" stroke-linecap="round" stroke-linejoin="round"/>
<path d="M128.358 118.89L163.658 140.72C164.315 141.126 165.046 141.4 165.81 141.525C166.574 141.651 167.355 141.625 168.109 141.449C168.863 141.274 169.574 140.953 170.202 140.503C170.831 140.054 171.364 139.486 171.77 138.832L183.669 119.703" stroke="#040404" stroke-width="1.72076" stroke-linecap="round" stroke-linejoin="round"/>
<path d="M172.836 70.4061H138.375C136.712 70.4061 135.117 71.0622 133.941 72.23C132.765 73.3978 132.104 74.9816 132.104 76.6331V117.109H179.134V76.6487C179.136 75.8274 178.974 75.0137 178.658 74.2546C178.342 73.4956 177.878 72.806 177.293 72.2258C176.708 71.6456 176.012 71.1861 175.247 70.8738C174.482 70.5615 173.663 70.4025 172.836 70.4061Z" stroke="#040404" stroke-width="1.72076" stroke-linecap="round" stroke-linejoin="round"/>
<path d="M132.09 93.7574H179.119" stroke="#040404" stroke-width="1.72076" stroke-linecap="round" stroke-linejoin="round"/>
<line x1="156.403" y1="70.9883" x2="156.403" y2="117.594" stroke="#040404" stroke-width="1.72076"/>
</svg>
