<svg width="20" height="22" viewBox="0 0 20 22" fill="none" xmlns="http://www.w3.org/2000/svg">
<path d="M1 21V19.75C1 18.6009 1.23279 17.4631 1.68508 16.4015C2.13738 15.3399 2.80031 14.3753 3.63604 13.5628C4.47177 12.7503 5.46392 12.1058 6.55585 11.6661C7.64778 11.2263 8.8181 11 10 11C11.1819 11 12.3522 11.2263 13.4442 11.6661C14.5361 12.1058 15.5282 12.7503 16.364 13.5628C17.1997 14.3753 17.8626 15.3399 18.3149 16.4015C18.7672 17.4631 19 18.6009 19 19.75V21" stroke="#81D489" stroke-width="1.8" stroke-linecap="round" stroke-linejoin="round"/>
<path d="M10.0003 11C11.3642 11 12.6724 10.4732 13.6368 9.53553C14.6013 8.59785 15.1431 7.32608 15.1431 6C15.1431 4.67392 14.6013 3.40215 13.6368 2.46447C12.6724 1.52678 11.3642 1 10.0003 1C8.63631 1 7.3282 1.52678 6.36373 2.46447C5.39926 3.40215 4.85742 4.67392 4.85742 6C4.85742 7.32608 5.39926 8.59785 6.36373 9.53553C7.3282 10.4732 8.63631 11 10.0003 11V11Z" stroke="#81D489" stroke-width="1.8" stroke-linecap="round" stroke-linejoin="round"/>
</svg>
