<svg width="160" height="23" viewBox="0 0 160 23" fill="none" xmlns="http://www.w3.org/2000/svg">
<path d="M11.9159 19.1854L17.8711 22.816C18.8107 23.3887 19.9696 22.5376 19.7203 21.459L18.1395 14.6154L23.4019 10.0102C24.2313 9.28507 23.7878 7.90861 22.6949 7.81539L15.7678 7.22219L13.0581 0.763592C12.6302 -0.254531 11.2017 -0.254531 10.7738 0.763592L8.0641 7.22219L1.13702 7.81539C0.0440304 7.90861 -0.399399 9.28507 0.429933 10.0102L5.69235 14.6154L4.11159 21.459C3.86231 22.5376 5.02122 23.3887 5.96081 22.816L11.9159 19.1854Z" fill="#FFC700"/>
<path d="M45.9579 19.1854L51.9131 22.816C52.8526 23.3887 54.0116 22.5376 53.7623 21.459L52.1815 14.6154L57.4439 10.0102C58.2733 9.28507 57.8298 7.90861 56.7368 7.81539L49.8098 7.22219L47.1001 0.763592C46.6722 -0.254531 45.2437 -0.254531 44.8158 0.763592L42.1061 7.22219L35.179 7.81539C34.086 7.90861 33.6426 9.28507 34.4719 10.0102L39.7343 14.6154L38.1536 21.459C37.9043 22.5376 39.0632 23.3887 40.0028 22.816L45.9579 19.1854Z" fill="#FFC700"/>
<path d="M79.9999 19.1854L85.9551 22.816C86.8946 23.3887 88.0535 22.5376 87.8043 21.459L86.2235 14.6154L91.4859 10.0102C92.3153 9.28507 91.8718 7.90861 90.7788 7.81539L83.8518 7.22219L81.1421 0.763592C80.7142 -0.254531 79.2856 -0.254531 78.8578 0.763592L76.1481 7.22219L69.221 7.81539C68.128 7.90861 67.6846 9.28507 68.5139 10.0102L73.7763 14.6154L72.1956 21.459C71.9463 22.5376 73.1052 23.3887 74.0448 22.816L79.9999 19.1854Z" fill="#FFC700"/>
<path d="M114.042 19.1854L119.997 22.816C120.937 23.3887 122.096 22.5376 121.846 21.459L120.265 14.6154L125.528 10.0102C126.357 9.28507 125.914 7.90861 124.821 7.81539L117.894 7.22219L115.184 0.763592C114.756 -0.254531 113.328 -0.254531 112.9 0.763592L110.19 7.22219L103.263 7.81539C102.17 7.90861 101.727 9.28507 102.556 10.0102L107.818 14.6154L106.238 21.459C105.988 22.5376 107.147 23.3887 108.087 22.816L114.042 19.1854Z" fill="#FFC700"/>
<path d="M148.084 19.1854L154.04 22.816C154.979 23.3887 156.138 22.5376 155.889 21.459L154.308 14.6154L159.57 10.0102C160.4 9.28507 159.956 7.90861 158.863 7.81539L151.936 7.22219L149.227 0.763592C148.799 -0.254531 147.37 -0.254531 146.942 0.763592L144.233 7.22219L137.305 7.81539C136.212 7.90861 135.769 9.28507 136.598 10.0102L141.861 14.6154L140.28 21.459C140.031 22.5376 141.19 23.3887 142.129 22.816L148.084 19.1854Z" fill="#FFC700"/>
</svg>
